<svg width="70" height="70" viewBox="0 0 70 70" fill="none" xmlns="http://www.w3.org/2000/svg">
<g filter="url(#filter0_d_24_85)">
<rect x="8" y="4" width="54" height="54" rx="27" fill="#5183F4" shape-rendering="crispEdges"/>
<rect x="10" y="6" width="50" height="50" rx="25" stroke="white" stroke-width="4" shape-rendering="crispEdges"/>
<path d="M25.296 25.456C24.8533 25.456 24.4667 25.5467 24.136 25.728C23.8107 25.904 23.536 26.112 23.312 26.352C23.0933 26.5867 22.9253 26.8027 22.808 27C22.696 27.192 22.6347 27.2987 22.624 27.32L21.416 26.792C21.4267 26.744 21.4773 26.6293 21.568 26.448C21.6587 26.2613 21.8 26.0453 21.992 25.8C22.184 25.5547 22.4293 25.3147 22.728 25.08C23.0267 24.84 23.3867 24.6427 23.808 24.488C24.2347 24.328 24.7307 24.248 25.296 24.248C25.872 24.248 26.3707 24.328 26.792 24.488C27.2133 24.648 27.56 24.872 27.832 25.16C28.104 25.448 28.3067 25.7893 28.44 26.184C28.5733 26.5787 28.64 27.008 28.64 27.472C28.64 27.92 28.5333 28.3787 28.32 28.848C28.1067 29.3173 27.8293 29.7787 27.488 30.232C27.1467 30.68 26.7787 31.104 26.384 31.504C25.9947 31.8987 25.616 32.256 25.248 32.576C24.8853 32.896 24.5707 33.16 24.304 33.368C24.0427 33.5707 23.872 33.704 23.792 33.768H28.552V35H21.656V33.872C21.8213 33.744 22.0693 33.5493 22.4 33.288C22.736 33.0213 23.1147 32.7093 23.536 32.352C23.9573 31.9947 24.384 31.608 24.816 31.192C25.248 30.776 25.648 30.352 26.016 29.92C26.384 29.4827 26.68 29.056 26.904 28.64C27.1333 28.2187 27.248 27.824 27.248 27.456C27.248 26.72 27.0773 26.2027 26.736 25.904C26.4 25.6053 25.92 25.456 25.296 25.456ZM34.3028 28.12C34.9001 28.12 35.4521 28.2693 35.9588 28.568C36.4708 28.8613 36.8841 29.272 37.1988 29.8C37.5134 30.3227 37.6708 30.9307 37.6708 31.624C37.6708 32.312 37.5028 32.9253 37.1668 33.464C36.8361 33.9973 36.3881 34.4187 35.8228 34.728C35.2628 35.0373 34.6441 35.192 33.9668 35.192C33.2734 35.192 32.6468 35.04 32.0868 34.736C31.5321 34.4267 31.0921 33.9947 30.7668 33.44C30.4414 32.8853 30.2788 32.2373 30.2788 31.496C30.2788 30.7173 30.4121 30.0587 30.6788 29.52C30.9454 28.976 31.2601 28.48 31.6228 28.032L34.4948 24.44H36.1348L32.6548 28.656C32.7721 28.528 32.9721 28.408 33.2548 28.296C33.5428 28.1787 33.8921 28.12 34.3028 28.12ZM33.9908 34.032C34.4281 34.032 34.8254 33.9253 35.1828 33.712C35.5454 33.4933 35.8334 33.2027 36.0468 32.84C36.2601 32.4773 36.3668 32.0773 36.3668 31.64C36.3668 31.2027 36.2601 30.8053 36.0468 30.448C35.8334 30.0853 35.5454 29.7973 35.1828 29.584C34.8254 29.3707 34.4281 29.264 33.9908 29.264C33.5481 29.264 33.1454 29.3707 32.7828 29.584C32.4254 29.7973 32.1374 30.0853 31.9188 30.448C31.7054 30.8053 31.5988 31.2027 31.5988 31.64C31.5988 32.0773 31.7054 32.4773 31.9188 32.84C32.1374 33.2027 32.4254 33.4933 32.7828 33.712C33.1454 33.9253 33.5481 34.032 33.9908 34.032ZM43.2833 30.272V32.976H42.1153V30.272H39.4033V29.112H42.1153V26.408H43.2833V29.112H45.9713V30.272H43.2833Z" fill="white"/>
</g>
<defs>
<filter id="filter0_d_24_85" x="0" y="0" width="70" height="70" filterUnits="userSpaceOnUse" color-interpolation-filters="sRGB">
<feFlood flood-opacity="0" result="BackgroundImageFix"/>
<feColorMatrix in="SourceAlpha" type="matrix" values="0 0 0 0 0 0 0 0 0 0 0 0 0 0 0 0 0 0 127 0" result="hardAlpha"/>
<feOffset dy="4"/>
<feGaussianBlur stdDeviation="4"/>
<feComposite in2="hardAlpha" operator="out"/>
<feColorMatrix type="matrix" values="0 0 0 0 0 0 0 0 0 0 0 0 0 0 0 0 0 0 0.04 0"/>
<feBlend mode="normal" in2="BackgroundImageFix" result="effect1_dropShadow_24_85"/>
<feBlend mode="normal" in="SourceGraphic" in2="effect1_dropShadow_24_85" result="shape"/>
</filter>
</defs>
</svg>
