<svg width="25" height="32" viewBox="0 0 25 32" fill="none" xmlns="http://www.w3.org/2000/svg">
<path d="M19.9998 7.50002C19.9998 11.6422 16.6419 15 12.4998 15C8.35762 15 4.99976 11.6422 4.99976 7.50002C4.99976 3.35788 8.35762 1.52588e-05 12.4998 1.52588e-05C16.6419 1.52588e-05 19.9998 3.35788 19.9998 7.50002Z" fill="white"/>
<path fill-rule="evenodd" clip-rule="evenodd" d="M12.4998 13.5C15.8135 13.5 18.4998 10.8137 18.4998 7.50002C18.4998 4.18631 15.8135 1.50002 12.4998 1.50002C9.18605 1.50002 6.49976 4.18631 6.49976 7.50002C6.49976 10.8137 9.18605 13.5 12.4998 13.5ZM12.4998 15C16.6419 15 19.9998 11.6422 19.9998 7.50002C19.9998 3.35788 16.6419 1.52588e-05 12.4998 1.52588e-05C8.35762 1.52588e-05 4.99976 3.35788 4.99976 7.50002C4.99976 11.6422 8.35762 15 12.4998 15Z" fill="#181A20"/>
<path d="M24.9998 24.5C24.9998 28.6422 19.4033 32 12.4998 32C5.5962 32 -0.000244141 28.6422 -0.000244141 24.5C-0.000244141 20.3579 5.5962 17 12.4998 17C19.4033 17 24.9998 20.3579 24.9998 24.5Z" fill="white"/>
<path fill-rule="evenodd" clip-rule="evenodd" d="M20.5668 28.5171C22.5886 27.304 23.4998 25.8372 23.4998 24.5C23.4998 23.1628 22.5886 21.696 20.5668 20.483C18.575 19.2878 15.7264 18.5 12.4998 18.5C9.2731 18.5 6.42453 19.2878 4.43266 20.483C2.41094 21.696 1.49976 23.1628 1.49976 24.5C1.49976 25.8372 2.41094 27.304 4.43266 28.5171C6.42453 29.7122 9.2731 30.5 12.4998 30.5C15.7264 30.5 18.575 29.7122 20.5668 28.5171ZM12.4998 32C19.4033 32 24.9998 28.6422 24.9998 24.5C24.9998 20.3579 19.4033 17 12.4998 17C5.5962 17 -0.000244141 20.3579 -0.000244141 24.5C-0.000244141 28.6422 5.5962 32 12.4998 32Z" fill="#181A20"/>
</svg>
