<svg width="30" height="30" viewBox="0 0 30 30" fill="none" xmlns="http://www.w3.org/2000/svg">
<path d="M27.4991 22.4801C27.416 22.6655 27.3109 22.8244 27.087 22.8789C26.7389 22.9638 26.4348 22.7338 26.4206 22.353C26.4035 21.9043 26.4206 21.4519 26.3854 21.0066C26.2529 19.2268 25.3817 17.8425 23.9228 16.793C22.793 15.9806 21.5057 15.5918 20.106 15.5372L20.0331 15.5339C19.5931 15.5121 19.3589 15.329 19.3555 15.0089C19.3521 14.6888 19.5912 14.5001 20.0248 14.4764C21.8543 14.3768 23.2271 12.9242 23.1509 11.1685C23.0834 9.62206 21.8166 8.32787 20.2253 8.18086C20.1118 8.17042 19.9984 8.16426 19.8855 8.15193C19.5618 8.11589 19.3403 7.88873 19.3565 7.61082C19.3595 7.54137 19.3767 7.47319 19.4072 7.4103C19.4378 7.34741 19.4809 7.29107 19.5342 7.24459C19.5875 7.19811 19.6499 7.16243 19.7176 7.13965C19.7853 7.11687 19.857 7.10744 19.9285 7.11193C20.2453 7.11697 20.5608 7.15304 20.8701 7.21958C23.2613 7.78866 24.6689 9.99339 24.1115 12.3124C23.8847 13.2557 23.3537 14.0273 22.5642 14.6267L22.3197 14.8107C22.7832 15.0122 23.2389 15.1782 23.6622 15.4016C25.434 16.3344 26.6612 17.7149 27.2366 19.6043C27.3574 20.0012 27.4126 20.4171 27.4982 20.8245L27.4991 22.4801Z" fill="#B1B1B1"/>
<path d="M15.0291 14.7864C15.6647 15.0377 16.3003 15.2421 16.8923 15.5281C19.2826 16.6819 20.9453 18.4608 21.7388 20.9586C21.9769 21.7088 22.0576 22.4852 22.0717 23.2677C22.0786 23.6537 22.0805 24.0407 22.0717 24.4262C22.0629 24.7378 21.9006 24.9374 21.6479 24.9868C21.3951 25.0361 21.1306 24.9251 21.0455 24.6984C21.0016 24.5637 20.9813 24.4228 20.9854 24.2816C20.9746 23.4469 21.0103 22.6113 20.8309 21.7852C20.6031 20.7086 20.1224 19.6974 19.4263 18.8302C18.0456 17.113 16.222 16.0697 14.0308 15.6969C11.0974 15.1971 8.43774 15.8416 6.17901 17.7665C4.74164 18.9915 3.87775 20.5498 3.65774 22.4045C3.57952 23.0685 3.61521 23.7424 3.59858 24.412C3.59027 24.7236 3.44311 24.9303 3.1928 24.9849C2.84225 25.0612 2.54109 24.8478 2.52153 24.4827C2.4086 22.3823 2.7171 20.3819 3.99117 18.6021C5.09414 17.0627 6.54715 15.954 8.32725 15.2431C8.72912 15.0823 9.14567 14.9585 9.58128 14.8068C7.89114 13.7559 6.92312 12.3 6.8708 10.3542C6.83071 8.87361 7.38122 7.58748 8.46267 6.54084C8.98762 6.02947 9.61577 5.62874 10.3078 5.36375C10.9998 5.09877 11.7407 4.97523 12.4842 5.00087C13.2277 5.02651 13.9578 5.20079 14.6286 5.51278C15.2995 5.82477 15.8967 6.26775 16.3829 6.814C17.4932 8.05508 17.9175 9.50719 17.6398 11.1234C17.3622 12.7396 16.4396 13.9356 15.0291 14.7864ZM16.6332 10.2541C16.6317 9.7014 16.5179 9.1544 16.2984 8.64435C16.0788 8.1343 15.7579 7.6712 15.3538 7.2815C14.9497 6.8918 14.4705 6.58313 13.9434 6.37313C13.4163 6.16313 12.8518 6.05591 12.282 6.05759C9.88635 6.0666 7.93074 7.96924 7.94688 10.2783C7.96399 12.6021 9.92595 14.4933 12.305 14.4819C14.6967 14.4687 16.6464 12.5655 16.6332 10.2541Z" fill="#B1B1B1"/>
</svg>
