<svg width="18" height="26" viewBox="0 0 18 26" fill="none" xmlns="http://www.w3.org/2000/svg">
<path d="M0.126916 10.0514C-0.0471687 9.05312 -0.0421299 8.0337 0.141813 7.03699C0.158126 6.94943 0.175859 6.86203 0.19501 6.7748C0.704282 4.61278 1.90015 2.88417 3.78261 1.589C4.97123 0.771631 6.35508 0.252626 7.8075 0.0794812C9.73589 -0.163874 11.5643 0.151266 13.2666 1.02948C14.8657 1.85373 16.0892 3.02469 16.9239 4.52148C18.0416 6.52758 18.3003 8.87109 17.6452 11.0564C17.2535 12.3599 16.5395 13.5538 15.5636 14.5372C14.4212 15.7162 12.9505 16.5582 11.3249 16.9642C10.9105 17.0695 10.486 17.1388 10.0684 17.2243V20.1023H10.3652C10.9924 20.1049 11.6207 20.0937 12.2473 20.113C12.5066 20.1227 12.7524 20.2259 12.9355 20.4018C13.1186 20.5777 13.2255 20.8133 13.2347 21.0615C13.2491 21.3089 13.1673 21.5527 13.0051 21.7458C12.8428 21.9389 12.6115 22.0677 12.3558 22.1072C12.2071 22.1272 12.057 22.1362 11.9069 22.1342C11.2993 22.1367 10.6918 22.1342 10.0551 22.1342V22.43C10.0551 23.2003 10.0349 23.971 10.0609 24.7408C10.0758 25.1634 9.97048 25.4963 9.70876 25.7321C9.51427 25.9043 9.25904 26 8.99405 26C8.72907 26 8.47384 25.9043 8.27935 25.7321C8.01337 25.4958 7.90698 25.1629 7.92772 24.7398C7.95379 24.1228 7.93304 23.5042 7.93304 22.8866V22.1352C7.38564 22.1352 6.8691 22.1377 6.34777 22.1352C6.10957 22.1411 5.87122 22.1314 5.6344 22.1062C5.37835 22.0687 5.1462 21.9409 4.9835 21.748C4.82081 21.5551 4.73933 21.311 4.75505 21.0635C4.76501 20.8158 4.87169 20.5807 5.054 20.4046C5.23632 20.2285 5.48101 20.1243 5.73973 20.1125C6.13658 20.0942 6.53502 20.1038 6.93241 20.1028C7.25691 20.1028 7.58194 20.1028 7.92081 20.1028V17.2172C7.86744 17.2005 7.81309 17.1869 7.75802 17.1765C6.63342 17.0396 5.54845 16.6902 4.5662 16.1486C2.39257 14.944 0.948808 13.184 0.298741 10.8538C0.227512 10.5893 0.170166 10.3215 0.126916 10.0514ZM8.99698 15.2342C12.7995 15.2311 15.8977 12.2579 15.8892 8.62084C15.885 6.87439 15.1585 5.20055 13.8687 3.96514C12.5788 2.72973 10.8304 2.03323 9.00549 2.02785C5.20723 2.01716 2.10371 4.98069 2.09999 8.62593C2.09627 12.2712 5.19818 15.2372 8.99645 15.2342H8.99698Z" fill="#5183F4"/>
</svg>
