<svg width="50" height="50" viewBox="0 0 50 50" fill="none" xmlns="http://www.w3.org/2000/svg">
<path d="M8.11166 0.319538C9.521 0.0202992 10.9782 0.0262895 12.385 0.337107C12.4534 0.352724 12.5218 0.368341 12.5902 0.38591C18.0255 1.77582 21.2747 7.29546 19.8881 12.7351C19.8382 12.9303 19.8724 13.2397 19.9985 13.3705C21.0343 14.449 23.2868 16.6364 23.4119 16.7145C23.5428 16.5564 33.4283 6.62588 38.2294 1.79437C38.8949 1.12381 39.578 0.51475 40.4506 0.193625C41.1882 -0.0761528 41.9996 -0.063634 42.7285 0.228765C43.5796 0.569411 44.252 1.17847 44.896 1.85098C45.9383 2.94222 47.0071 4.01134 48.1022 5.05833C48.9035 5.82746 49.6276 6.63174 49.912 7.73372C50.0365 8.2228 50.0288 8.73614 49.8895 9.22124C49.6198 10.1768 49.0374 10.9264 48.3309 11.6292C43.434 16.5027 33.4362 26.5376 33.2818 26.6996C34.3841 27.8006 35.4697 28.8704 36.5349 29.9606C36.7626 30.1939 36.962 30.2212 37.2639 30.1402C42.5673 28.7201 48.1247 31.9294 49.5407 37.2372C49.7195 37.8935 49.844 38.5634 49.913 39.2401C49.9649 39.7813 49.9455 40.3271 49.8553 40.8633C49.8549 40.8662 49.8549 40.8691 49.8553 40.8721C49.6208 41.8306 49.4429 42.8076 49.1371 43.7417C48.8204 44.7109 48.0309 44.8398 47.2999 44.1097C45.9318 42.7432 42.9474 39.7672 42.9073 39.7301L39.5799 43.0487C39.6972 43.1463 42.7412 46.1223 44.0907 47.4859C44.7074 48.1086 44.5617 48.8524 43.7663 49.2106C43.5763 49.3023 43.3784 49.3768 43.1751 49.4331C42.7842 49.5327 42.3891 49.6303 41.9897 49.7259C40.6172 50.0573 39.1891 50.0886 37.8033 49.8177H37.7818C32.6348 48.8143 29.0426 43.7231 29.8205 38.5334C29.9045 37.9771 30.2035 37.3553 30.0413 36.8887C29.8693 36.3909 27.3686 34.1333 26.5233 33.29C26.3914 33.4852 18.7203 41.2566 14.9727 44.9823C14.6765 45.2767 14.3187 45.502 13.9251 45.6421C9.86674 47.0086 5.7986 48.3546 1.73534 49.7093C1.278 49.8616 0.842165 49.926 0.464961 49.5473C0.0877562 49.1686 0.165931 48.7284 0.316422 48.2784C1.67182 44.2082 3.01451 40.1332 4.38261 36.0669C4.50466 35.7051 4.70788 35.3759 4.97676 35.1045C8.71167 31.3427 12.4577 27.5914 16.2147 23.8505C16.3506 23.7158 16.5372 23.6318 16.7278 23.5069C15.474 22.2478 14.3443 21.1058 13.1971 19.9804C13.116 19.9013 12.899 19.9121 12.7612 19.9462C11.4211 20.2884 10.027 20.3664 8.65694 20.1756C2.2513 19.2786 -1.681 12.5233 0.703401 6.50485C1.15976 5.3531 1.8399 5.20571 2.70669 6.07246C4.01681 7.38364 5.32595 8.69612 6.63411 10.0099C6.77874 10.1563 6.86474 10.3603 6.94585 10.4862L10.3094 7.11489C10.2576 7.05828 10.1736 6.96165 10.0837 6.87088C8.67063 5.45558 7.25758 4.04029 5.84452 2.625C5.22399 2.00032 5.35592 1.23704 6.13769 0.89932C6.44633 0.754672 6.76712 0.637418 7.09633 0.548914C7.43315 0.464972 7.77159 0.388514 8.11166 0.319538ZM6.89112 36.0318L9.73286 38.8848C9.83644 38.7872 9.96544 38.6671 10.0895 38.5432L18.9499 29.6766C19.592 29.0344 20.1793 28.9416 20.6268 29.4082C21.0744 29.8747 20.9611 30.4311 20.3337 31.0538C17.9538 33.4348 15.5759 35.8151 13.2 38.1947C12.5003 38.8936 11.7938 39.5876 11.1205 40.2542C12.0977 41.2439 13.0453 42.1998 13.9632 43.1219L42.8194 14.2441L39.9151 11.3412C39.8265 11.4882 39.7255 11.6273 39.6131 11.7571C35.4561 15.9216 31.297 20.0861 27.1361 24.2507C26.4735 24.9134 25.9263 24.9983 25.4611 24.5132C24.996 24.0281 25.0996 23.5235 25.7543 22.8725C29.9133 18.7079 34.0727 14.5434 38.2323 10.3788C38.3652 10.2461 38.4913 10.1075 38.5548 10.0402L35.715 7.1881L6.89112 36.0318ZM21.8953 18.0361C20.6659 16.8131 19.4454 15.5744 18.1946 14.367C17.7157 13.9054 17.5848 13.4544 17.8037 12.8053C18.438 10.9656 18.3906 8.95955 17.6701 7.15169C16.9496 5.34384 15.6039 3.85406 13.8772 2.95296C12.1251 2.02374 10.2684 1.78168 8.24652 2.24336C8.41264 2.421 8.52698 2.55082 8.64815 2.67185C9.86511 3.89193 11.0827 5.11169 12.301 6.33111C12.8873 6.91675 12.8873 7.4243 12.301 8.00994C10.856 9.46167 9.4081 10.9108 7.95726 12.3573C7.32891 12.9849 6.85203 12.9781 6.21 12.3378C5.00216 11.1314 3.79531 9.924 2.58942 8.71564C2.46629 8.59363 2.3373 8.47845 2.1829 8.33302C2.13502 8.51066 2.09398 8.63267 2.07052 8.75761C1.34445 12.656 3.68879 16.6266 7.46963 17.8916C9.18872 18.4895 11.0606 18.4836 12.7759 17.875C13.3622 17.671 13.8157 17.753 14.2192 18.2147C14.401 18.4226 14.6101 18.6051 14.8056 18.8003L17.9649 21.9677L21.8953 18.0361ZM47.7006 41.7778C48.0142 40.7764 48.0553 39.5583 47.8393 38.4641C46.8572 33.4803 41.9428 30.6048 37.1379 32.2173C36.5515 32.4125 36.1176 32.3149 35.6926 31.8737C34.5688 30.721 32.0329 28.2135 31.8677 28.0563C30.6237 29.3116 28.0732 31.8991 27.9911 31.9928C29.2556 33.2617 30.4947 34.5208 31.7612 35.7555C32.2117 36.1948 32.328 36.634 32.1238 37.2401C30.8759 40.9609 32.287 44.8534 35.6232 46.8934C37.4799 48.0256 39.4832 48.3272 41.6663 47.848C41.5197 47.6879 38.8685 45.0174 37.6528 43.7973C37.0137 43.1551 37.0108 42.6866 37.645 42.0502C39.0561 40.6336 40.4692 39.2186 41.8842 37.8053C42.6063 37.083 43.0383 37.082 43.7692 37.815C45.065 39.12 46.3559 40.424 47.7006 41.7778ZM44.3487 12.7888C45.4002 11.7473 46.5074 10.6961 47.5579 9.59117C48.2224 8.8923 48.1335 7.86646 47.4093 7.13539C45.8999 5.61078 44.3832 4.093 42.8594 2.58205C42.0523 1.78168 41.0291 1.78559 40.221 2.5762C39.6288 3.15598 39.0542 3.75333 38.462 4.33311C38.0134 4.77136 37.5483 5.19303 37.1427 5.57271L44.3487 12.7888ZM11.9863 44.2434L5.7771 38.0288C5.49663 38.8711 5.17904 39.7857 4.8976 40.7198C4.8822 40.8058 4.88594 40.894 4.90858 40.9784C4.93121 41.0627 4.97217 41.1411 5.02855 41.2078C6.28004 42.4852 7.54357 43.7511 8.81916 45.0057C8.91689 45.0974 9.11233 45.1755 9.22373 45.1414C10.1794 44.8456 11.1273 44.5264 11.9863 44.2434ZM6.87646 45.9378L4.08163 43.1443C3.63309 44.4991 3.18064 45.8705 2.69887 47.3258L6.87646 45.9378Z" fill="#5183F4"/>
</svg>
